<svg width="64" height="64" viewBox="0 0 64 64" xmlns="http://www.w3.org/2000/svg">
  <rect width="64" height="64" rx="16" fill="#4F46E5"/>
  
  <!-- Open book -->
  <path d="M14 20C14 18.3431 15.3431 17 17 17H29C30.6569 17 32 18.3431 32 20V47C32 45.3431 30.6569 44 29 44H17C15.3431 44 14 42.6569 14 41V20Z" fill="#FFFFFF"/>
  <path d="M50 20C50 18.3431 48.6569 17 47 17H35C33.3431 17 32 18.3431 32 20V47C32 45.3431 33.3431 44 35 44H47C48.6569 44 50 42.6569 50 41V20Z" fill="#FFFFFF"/>
  
  <!-- Center fold -->
  <path d="M32 18V46" stroke="#4F46E5" stroke-width="3" stroke-linecap="round"/>
  
  <!-- Simple page lines -->
  <path d="M19 27H27" stroke="#4F46E5" stroke-width="2.5" stroke-linecap="round"/>
  <path d="M19 34H26" stroke="#4F46E5" stroke-width="2.5" stroke-linecap="round"/>
  <path d="M37 27H45" stroke="#4F46E5" stroke-width="2.5" stroke-linecap="round"/>
  <path d="M38 34H45" stroke="#4F46E5" stroke-width="2.5" stroke-linecap="round"/>
</svg>