<svg xmlns="http://www.w3.org/2000/svg" height="100%" viewBox="0 -960 960 960" width="100%">
  <style>
    path { fill: #0F172A; } /* Dark color for Light Mode tabs */
    @media (prefers-color-scheme: dark) {
      path { fill: #FFFFFF; } /* Crisp white for Dark Mode tabs */
    }
  </style>
  <path d="M560-250q73-19 146.5-24.5T840-280v-560q-63-12-132.5-16t-147.5 4v560Zm-80 0v-560q-78-8-147.5-4T200-840v560q60-6 133.5-1T480-250ZM200-120q-33 0-56.5-23.5T120-200v-560q0-33 23.5-56.5T200-840h60q53 0 106.5 6t113.5 18q59-12 113.5-18t106.5-6h60q33 0 56.5 23.5T840-760v560q0 33-23.5 56.5T760-120h-60q-54 0-109-5.5T480-140q-56 15-111 20.5T260-120h-60Zm80-160h-80v-480h80v480Zm480 0v-480h-80v480h80ZM280-280Z"/>
</svg>
