<svg xmlns="http://www.w3.org/2000/svg" width="100" height="96" viewBox="0 0 100 96" role="img">
<title>Lit &amp; Learn</title>
<desc>Open book with a spark — Lit &amp; Learn.</desc>
<g transform="translate(2 2) scale(1.0)">
<path d="M48 4 C49.6 12 51.4 13.8 59.5 15.4 C51.4 17 49.6 18.8 48 27 C46.4 18.8 44.6 17 36.5 15.4 C44.6 13.8 46.4 12 48 4 Z" fill="#4F46E5"/>
<path d="M46 40 C36 31 20 28 5 32 L5 80 C20 76 36 79 46 87 Z" fill="#4F46E5"/>
<path d="M50 40 C60 31 76 28 91 32 L91 80 C76 76 60 79 50 87 Z" fill="#4F46E5"/>
</g>
</svg>